<svg width="100" height="100" viewBox="0 0 100 100" fill="none" xmlns="http://www.w3.org/2000/svg">
<path opacity="0.4" d="M73.3778 0H26.6667C9.64445 0 0 9.64445 0 26.6667V73.3333C0 90.3556 9.64445 100 26.6667 100H73.3778C90.4 100 100 90.3556 100 73.3333V26.6667C100 9.64445 90.4 0 73.3778 0Z" fill="#D6182A"/>
<path d="M26.8436 36.8452C24.5769 36.8452 22.7102 38.7119 22.7102 41.023V75.3785C22.7102 77.6452 24.5769 79.5119 26.8436 79.5119C29.1547 79.5119 31.0213 77.6452 31.0213 75.3785V41.023C31.0213 38.7119 29.1547 36.8452 26.8436 36.8452Z" fill="#D6182A"/>
<path d="M50.1769 20.4448C47.9102 20.4448 46.0435 22.3115 46.0435 24.6226V75.3782C46.0435 77.6448 47.9102 79.5115 50.1769 79.5115C52.488 79.5115 54.3547 77.6448 54.3547 75.3782V24.6226C54.3547 22.3115 52.488 20.4448 50.1769 20.4448Z" fill="#D6182A"/>
<path d="M73.1995 54.978C70.8884 54.978 69.0218 56.8447 69.0218 59.1558V75.378C69.0218 77.6447 70.8884 79.5114 73.1551 79.5114C75.4662 79.5114 77.3329 77.6447 77.3329 75.378V59.1558C77.3329 56.8447 75.4662 54.978 73.1995 54.978Z" fill="#D6182A"/>
</svg>
